<?xml version="1.0" standalone="no"?>
<!DOCTYPE svg PUBLIC "-//W3C//DTD SVG 1.1//EN" "http://www.w3.org/Graphics/SVG/1.1/DTD/svg11.dtd">
<svg version="1.1" width="1200" height="326" onload="init(evt)" viewBox="0 0 1200 326" xmlns="http://www.w3.org/2000/svg" xmlns:xlink="http://www.w3.org/1999/xlink">
<style type="text/css">
	text { font-family:Verdana; font-size:12px; fill:rgb(0,0,0); }
	#search { opacity:0.1; cursor:pointer; }
	#search:hover, #search.show { opacity:1; }
	#subtitle { text-anchor:middle; font-color:rgb(160,160,160); }
	#title { text-anchor:middle; font-size:17px}
	#unzoom { cursor:pointer; }
	#frames > *:hover { stroke:black; stroke-width:0.5; cursor:pointer; }
	.hide { display:none; }
	.parent { opacity:0.5; }
</style>
<script type="text/ecmascript">
<![CDATA[
	"use strict";
	var details, searchbtn, unzoombtn, matchedtxt, svg, searching;
	function init(evt) {
		details = document.getElementById("details").firstChild;
		searchbtn = document.getElementById("search");
		unzoombtn = document.getElementById("unzoom");
		matchedtxt = document.getElementById("matched");
		svg = document.getElementsByTagName("svg")[0];
		searching = 0;
	}

	window.addEventListener("click", function(e) {
		var target = find_group(e.target);
		if (target) {
			if (target.nodeName == "a") {
				if (e.ctrlKey === false) return;
				e.preventDefault();
			}
			if (target.classList.contains("parent")) unzoom();
			zoom(target);
		}
		else if (e.target.id == "unzoom") unzoom();
		else if (e.target.id == "search") search_prompt();
	}, false)

	// mouse-over for info
	// show
	window.addEventListener("mouseover", function(e) {
		var target = find_group(e.target);
		if (target) details.nodeValue = "Function: " + g_to_text(target);
	}, false)

	// clear
	window.addEventListener("mouseout", function(e) {
		var target = find_group(e.target);
		if (target) details.nodeValue = ' ';
	}, false)

	// ctrl-F for search
	window.addEventListener("keydown",function (e) {
		if (e.keyCode === 114 || (e.ctrlKey && e.keyCode === 70)) {
			e.preventDefault();
			search_prompt();
		}
	}, false)

	// functions
	function find_child(node, selector) {
		var children = node.querySelectorAll(selector);
		if (children.length) return children[0];
		return;
	}
	function find_group(node) {
		var parent = node.parentElement;
		if (!parent) return;
		if (parent.id == "frames") return node;
		return find_group(parent);
	}
	function orig_save(e, attr, val) {
		if (e.attributes["_orig_" + attr] != undefined) return;
		if (e.attributes[attr] == undefined) return;
		if (val == undefined) val = e.attributes[attr].value;
		e.setAttribute("_orig_" + attr, val);
	}
	function orig_load(e, attr) {
		if (e.attributes["_orig_"+attr] == undefined) return;
		e.attributes[attr].value = e.attributes["_orig_" + attr].value;
		e.removeAttribute("_orig_"+attr);
	}
	function g_to_text(e) {
		var text = find_child(e, "title").firstChild.nodeValue;
		return (text)
	}
	function g_to_func(e) {
		var func = g_to_text(e);
		// if there's any manipulation we want to do to the function
		// name before it's searched, do it here before returning.
		return (func);
	}
	function update_text(e) {
		var r = find_child(e, "rect");
		var t = find_child(e, "text");
		var w = parseFloat(r.attributes.width.value) -3;
		var txt = find_child(e, "title").textContent.replace(/\([^(]*\)$/,"");
		t.attributes.x.value = parseFloat(r.attributes.x.value) + 3;

		// Smaller than this size won't fit anything
		if (w < 2 * 12 * 0.59) {
			t.textContent = "";
			return;
		}

		t.textContent = txt;
		// Fit in full text width
		if (/^ *$/.test(txt) || t.getSubStringLength(0, txt.length) < w)
			return;

		for (var x = txt.length - 2; x > 0; x--) {
			if (t.getSubStringLength(0, x + 2) <= w) {
				t.textContent = txt.substring(0, x) + "..";
				return;
			}
		}
		t.textContent = "";
	}

	// zoom
	function zoom_reset(e) {
		if (e.attributes != undefined) {
			orig_load(e, "x");
			orig_load(e, "width");
		}
		if (e.childNodes == undefined) return;
		for (var i = 0, c = e.childNodes; i < c.length; i++) {
			zoom_reset(c[i]);
		}
	}
	function zoom_child(e, x, ratio) {
		if (e.attributes != undefined) {
			if (e.attributes.x != undefined) {
				orig_save(e, "x");
				e.attributes.x.value = (parseFloat(e.attributes.x.value) - x - 10) * ratio + 10;
				if (e.tagName == "text")
					e.attributes.x.value = find_child(e.parentNode, "rect[x]").attributes.x.value + 3;
			}
			if (e.attributes.width != undefined) {
				orig_save(e, "width");
				e.attributes.width.value = parseFloat(e.attributes.width.value) * ratio;
			}
		}

		if (e.childNodes == undefined) return;
		for (var i = 0, c = e.childNodes; i < c.length; i++) {
			zoom_child(c[i], x - 10, ratio);
		}
	}
	function zoom_parent(e) {
		if (e.attributes) {
			if (e.attributes.x != undefined) {
				orig_save(e, "x");
				e.attributes.x.value = 10;
			}
			if (e.attributes.width != undefined) {
				orig_save(e, "width");
				e.attributes.width.value = parseInt(svg.width.baseVal.value) - (10 * 2);
			}
		}
		if (e.childNodes == undefined) return;
		for (var i = 0, c = e.childNodes; i < c.length; i++) {
			zoom_parent(c[i]);
		}
	}
	function zoom(node) {
		var attr = find_child(node, "rect").attributes;
		var width = parseFloat(attr.width.value);
		var xmin = parseFloat(attr.x.value);
		var xmax = parseFloat(xmin + width);
		var ymin = parseFloat(attr.y.value);
		var ratio = (svg.width.baseVal.value - 2 * 10) / width;

		// XXX: Workaround for JavaScript float issues (fix me)
		var fudge = 0.0001;

		unzoombtn.classList.remove("hide");

		var el = document.getElementById("frames").children;
		for (var i = 0; i < el.length; i++) {
			var e = el[i];
			var a = find_child(e, "rect").attributes;
			var ex = parseFloat(a.x.value);
			var ew = parseFloat(a.width.value);
			var upstack;
			// Is it an ancestor
			if (0 == 0) {
				upstack = parseFloat(a.y.value) > ymin;
			} else {
				upstack = parseFloat(a.y.value) < ymin;
			}
			if (upstack) {
				// Direct ancestor
				if (ex <= xmin && (ex+ew+fudge) >= xmax) {
					e.classList.add("parent");
					zoom_parent(e);
					update_text(e);
				}
				// not in current path
				else
					e.classList.add("hide");
			}
			// Children maybe
			else {
				// no common path
				if (ex < xmin || ex + fudge >= xmax) {
					e.classList.add("hide");
				}
				else {
					zoom_child(e, xmin, ratio);
					update_text(e);
				}
			}
		}
	}
	function unzoom() {
		unzoombtn.classList.add("hide");
		var el = document.getElementById("frames").children;
		for(var i = 0; i < el.length; i++) {
			el[i].classList.remove("parent");
			el[i].classList.remove("hide");
			zoom_reset(el[i]);
			update_text(el[i]);
		}
	}

	// search
	function reset_search() {
		var el = document.querySelectorAll("#frames rect");
		for (var i = 0; i < el.length; i++) {
			orig_load(el[i], "fill")
		}
	}
	function search_prompt() {
		if (!searching) {
			var term = prompt("Enter a search term (regexp " +
			    "allowed, eg: ^ext4_)", "");
			if (term != null) {
				search(term)
			}
		} else {
			reset_search();
			searching = 0;
			searchbtn.classList.remove("show");
			searchbtn.firstChild.nodeValue = "Search"
			matchedtxt.classList.add("hide");
			matchedtxt.firstChild.nodeValue = ""
		}
	}
	function search(term) {
		var re = new RegExp(term);
		var el = document.getElementById("frames").children;
		var matches = new Object();
		var maxwidth = 0;
		for (var i = 0; i < el.length; i++) {
			var e = el[i];
			var func = g_to_func(e);
			var rect = find_child(e, "rect");
			if (func == null || rect == null)
				continue;

			// Save max width. Only works as we have a root frame
			var w = parseFloat(rect.attributes.width.value);
			if (w > maxwidth)
				maxwidth = w;

			if (func.match(re)) {
				// highlight
				var x = parseFloat(rect.attributes.x.value);
				orig_save(rect, "fill");
				rect.attributes.fill.value = "rgb(230,0,230)";

				// remember matches
				if (matches[x] == undefined) {
					matches[x] = w;
				} else {
					if (w > matches[x]) {
						// overwrite with parent
						matches[x] = w;
					}
				}
				searching = 1;
			}
		}
		if (!searching)
			return;

		searchbtn.classList.add("show");
		searchbtn.firstChild.nodeValue = "Reset Search";

		// calculate percent matched, excluding vertical overlap
		var count = 0;
		var lastx = -1;
		var lastw = 0;
		var keys = Array();
		for (k in matches) {
			if (matches.hasOwnProperty(k))
				keys.push(k);
		}
		// sort the matched frames by their x location
		// ascending, then width descending
		keys.sort(function(a, b){
			return a - b;
		});
		// Step through frames saving only the biggest bottom-up frames
		// thanks to the sort order. This relies on the tree property
		// where children are always smaller than their parents.
		var fudge = 0.0001;	// JavaScript floating point
		for (var k in keys) {
			var x = parseFloat(keys[k]);
			var w = matches[keys[k]];
			if (x >= lastx + lastw - fudge) {
				count += w;
				lastx = x;
				lastw = w;
			}
		}
		// display matched percent
		matchedtxt.classList.remove("hide");
		var pct = 100 * count / maxwidth;
		if (pct != 100) pct = pct.toFixed(1)
		matchedtxt.firstChild.nodeValue = "Matched: " + pct + "%";
	}
]]>
</script>
<rect x="0" y="0" width="100%" height="100%" fill="rgb(240,240,220)"/>
<text id="title" x="600" y="24">Flame Graph</text>
<text id="details" x="10" y="309"> </text>
<text id="unzoom" x="10" y="24" class="hide">Reset Zoom</text>
<text id="search" x="1090" y="24">Search</text>
<text id="matched" x="1090" y="309"> </text>
<g id="frames">
<g>
<title>all (52,758 samples, 100.00%)</title><rect x="10.0" y="275.0" width="1180.0" height="15" fill="#e15b5b" rx="2" ry="2"/>
<text x="13.0" y="286.0">all</text>
</g>
<g>
<title>java/lang/Thread.run (1,137 samples, 2.16%)</title><rect x="10.0" y="259.0" width="25.4" height="15" fill="#66f766" rx="2" ry="2"/>
<text x="13.0" y="270.0">j..</text>
</g>
<g>
<title>java/util/concurrent/ThreadPoolExecutor$Worker.run (1,137 samples, 2.16%)</title><rect x="10.0" y="243.0" width="25.4" height="15" fill="#61f261" rx="2" ry="2"/>
<text x="13.0" y="254.0">j..</text>
</g>
<g>
<title>java/util/concurrent/ThreadPoolExecutor.runWorker (1,137 samples, 2.16%)</title><rect x="10.0" y="227.0" width="25.4" height="15" fill="#54e554" rx="2" ry="2"/>
<text x="13.0" y="238.0">j..</text>
</g>
<g>
<title>java/util/concurrent/FutureTask.run (1,137 samples, 2.16%)</title><rect x="10.0" y="211.0" width="25.4" height="15" fill="#54e554" rx="2" ry="2"/>
<text x="13.0" y="222.0">j..</text>
</g>
<g>
<title>java/util/concurrent/Executors$RunnableAdapter.call (1,137 samples, 2.16%)</title><rect x="10.0" y="195.0" width="25.4" height="15" fill="#55e655" rx="2" ry="2"/>
<text x="13.0" y="206.0">j..</text>
</g>
<g>
<title>ru/mail/polis/lsm/artemdrozdov/LsmDAO$$Lambda$91.0x0000000800bea0f0.run (1,137 samples, 2.16%)</title><rect x="10.0" y="179.0" width="25.4" height="15" fill="#67f867" rx="2" ry="2"/>
<text x="13.0" y="190.0">r..</text>
</g>
<g>
<title>ru/mail/polis/lsm/artemdrozdov/LsmDAO.lambda$upsert$0 (1,137 samples, 2.16%)</title><rect x="10.0" y="163.0" width="25.4" height="15" fill="#69fa69" rx="2" ry="2"/>
<text x="13.0" y="174.0">r..</text>
</g>
<g>
<title>ru/mail/polis/lsm/artemdrozdov/LsmDAO.flush (1,137 samples, 2.16%)</title><rect x="10.0" y="147.0" width="25.4" height="15" fill="#66f766" rx="2" ry="2"/>
<text x="13.0" y="158.0">r..</text>
</g>
<g>
<title>java/lang/invoke/Invokers$Holder.linkToTargetMethod (12 samples, 0.02%)</title><rect x="10.0" y="131.0" width="0.3" height="15" fill="#55e655" rx="2" ry="2"/>
<text x="13.0" y="142.0"></text>
</g>
<g>
<title>java/lang/invoke/LambdaForm$MH.0x0000000800b9d440.invoke (12 samples, 0.02%)</title><rect x="10.0" y="115.0" width="0.3" height="15" fill="#64f564" rx="2" ry="2"/>
<text x="13.0" y="126.0"></text>
</g>
<g>
<title>java/lang/invoke/DirectMethodHandle$Holder.invokeStatic (12 samples, 0.02%)</title><rect x="10.0" y="99.0" width="0.3" height="15" fill="#59ea59" rx="2" ry="2"/>
<text x="13.0" y="110.0"></text>
</g>
<g>
<title>java/lang/StringConcatHelper.newArray (12 samples, 0.02%)</title><rect x="10.0" y="83.0" width="0.3" height="15" fill="#53e453" rx="2" ry="2"/>
<text x="13.0" y="94.0"></text>
</g>
<g>
<title>jdk/internal/misc/Unsafe.allocateUninitializedArray (12 samples, 0.02%)</title><rect x="10.0" y="67.0" width="0.3" height="15" fill="#6afb6a" rx="2" ry="2"/>
<text x="13.0" y="78.0"></text>
</g>
<g>
<title>jdk/internal/misc/Unsafe.allocateUninitializedArray0 (12 samples, 0.02%)</title><rect x="10.0" y="51.0" width="0.3" height="15" fill="#53e453" rx="2" ry="2"/>
<text x="13.0" y="62.0"></text>
</g>
<g>
<title>byte[] (12 samples, 0.02%)</title><rect x="10.0" y="35.0" width="0.3" height="15" fill="#5ecccc" rx="2" ry="2"/>
<text x="13.0" y="46.0"></text>
</g>
<g>
<title>java/util/concurrent/ConcurrentSkipListMap.clear (197 samples, 0.37%)</title><rect x="10.3" y="131.0" width="4.4" height="15" fill="#58e958" rx="2" ry="2"/>
<text x="13.3" y="142.0"></text>
</g>
<g>
<title>java/util/concurrent/ConcurrentSkipListMap.unlinkNode (197 samples, 0.37%)</title><rect x="10.3" y="115.0" width="4.4" height="15" fill="#55e655" rx="2" ry="2"/>
<text x="13.3" y="126.0"></text>
</g>
<g>
<title>java.util.concurrent.ConcurrentSkipListMap$Node (197 samples, 0.37%)</title><rect x="10.3" y="99.0" width="4.4" height="15" fill="#58c6c6" rx="2" ry="2"/>
<text x="13.3" y="110.0"></text>
</g>
<g>
<title>ru/mail/polis/lsm/artemdrozdov/SSTable.write (928 samples, 1.76%)</title><rect x="14.7" y="131.0" width="20.7" height="15" fill="#63f463" rx="2" ry="2"/>
<text x="17.7" y="142.0"></text>
</g>
<g>
<title>ru/mail/polis/lsm/artemdrozdov/SSTable.writeImpl (928 samples, 1.76%)</title><rect x="14.7" y="115.0" width="20.7" height="15" fill="#6cfd6c" rx="2" ry="2"/>
<text x="17.7" y="126.0"></text>
</g>
<g>
<title>ru/mail/polis/lsm/Record.getKey (518 samples, 0.98%)</title><rect x="14.7" y="99.0" width="11.6" height="15" fill="#56e756" rx="2" ry="2"/>
<text x="17.7" y="110.0"></text>
</g>
<g>
<title>java/nio/HeapByteBufferR.asReadOnlyBuffer (518 samples, 0.98%)</title><rect x="14.7" y="83.0" width="11.6" height="15" fill="#5ff05f" rx="2" ry="2"/>
<text x="17.7" y="94.0"></text>
</g>
<g>
<title>java/nio/HeapByteBufferR.duplicate (518 samples, 0.98%)</title><rect x="14.7" y="67.0" width="11.6" height="15" fill="#67f867" rx="2" ry="2"/>
<text x="17.7" y="78.0"></text>
</g>
<g>
<title>java.nio.HeapByteBufferR (518 samples, 0.98%)</title><rect x="14.7" y="51.0" width="11.6" height="15" fill="#6cdada" rx="2" ry="2"/>
<text x="17.7" y="62.0"></text>
</g>
<g>
<title>ru/mail/polis/lsm/Record.getValue (410 samples, 0.78%)</title><rect x="26.3" y="99.0" width="9.1" height="15" fill="#54e554" rx="2" ry="2"/>
<text x="29.3" y="110.0"></text>
</g>
<g>
<title>java/nio/HeapByteBufferR.asReadOnlyBuffer (410 samples, 0.78%)</title><rect x="26.3" y="83.0" width="9.1" height="15" fill="#58e958" rx="2" ry="2"/>
<text x="29.3" y="94.0"></text>
</g>
<g>
<title>java/nio/HeapByteBufferR.duplicate (410 samples, 0.78%)</title><rect x="26.3" y="67.0" width="9.1" height="15" fill="#60f160" rx="2" ry="2"/>
<text x="29.3" y="78.0"></text>
</g>
<g>
<title>java.nio.HeapByteBufferR (410 samples, 0.78%)</title><rect x="26.3" y="51.0" width="9.1" height="15" fill="#63d1d1" rx="2" ry="2"/>
<text x="29.3" y="62.0"></text>
</g>
<g>
<title>one/nio/server/SelectorThread.run (51,621 samples, 97.84%)</title><rect x="35.4" y="259.0" width="1154.6" height="15" fill="#6afb6a" rx="2" ry="2"/>
<text x="38.4" y="270.0">one/nio/server/SelectorThread.run</text>
</g>
<g>
<title>one/nio/net/NativeSelector.select (2,288 samples, 4.34%)</title><rect x="35.4" y="243.0" width="51.2" height="15" fill="#56e756" rx="2" ry="2"/>
<text x="38.4" y="254.0">one/n..</text>
</g>
<g>
<title>one.nio.net.NativeSelector$2 (2,288 samples, 4.34%)</title><rect x="35.4" y="227.0" width="51.2" height="15" fill="#64d2d2" rx="2" ry="2"/>
<text x="38.4" y="238.0">one.n..</text>
</g>
<g>
<title>one/nio/net/Session.process (49,333 samples, 93.51%)</title><rect x="86.6" y="243.0" width="1103.4" height="15" fill="#62f362" rx="2" ry="2"/>
<text x="89.6" y="254.0">one/nio/net/Session.process</text>
</g>
<g>
<title>one/nio/http/HttpSession.processRead (49,333 samples, 93.51%)</title><rect x="86.6" y="227.0" width="1103.4" height="15" fill="#68f968" rx="2" ry="2"/>
<text x="89.6" y="238.0">one/nio/http/HttpSession.processRead</text>
</g>
<g>
<title>one/nio/http/HttpSession.processHttpBuffer (49,333 samples, 93.51%)</title><rect x="86.6" y="211.0" width="1103.4" height="15" fill="#68f968" rx="2" ry="2"/>
<text x="89.6" y="222.0">one/nio/http/HttpSession.processHttpBuffer</text>
</g>
<g>
<title>one/nio/http/HttpSession.handleParsedRequest (25,143 samples, 47.66%)</title><rect x="86.6" y="195.0" width="562.4" height="15" fill="#67f867" rx="2" ry="2"/>
<text x="89.6" y="206.0">one/nio/http/HttpSession.handleParsedRequest</text>
</g>
<g>
<title>one/nio/http/HttpServer.handleRequest (25,143 samples, 47.66%)</title><rect x="86.6" y="179.0" width="562.4" height="15" fill="#50e150" rx="2" ry="2"/>
<text x="89.6" y="190.0">one/nio/http/HttpServer.handleRequest</text>
</g>
<g>
<title>RequestHandler1_entity.handleRequest (22,767 samples, 43.15%)</title><rect x="86.6" y="163.0" width="509.2" height="15" fill="#61f261" rx="2" ry="2"/>
<text x="89.6" y="174.0">RequestHandler1_entity.handleRequest</text>
</g>
<g>
<title>one/nio/http/HttpSession.sendResponse (5,393 samples, 10.22%)</title><rect x="86.6" y="147.0" width="120.6" height="15" fill="#62f362" rx="2" ry="2"/>
<text x="89.6" y="158.0">one/nio/http/Ht..</text>
</g>
<g>
<title>one/nio/http/HttpSession.writeResponse (5,393 samples, 10.22%)</title><rect x="86.6" y="131.0" width="120.6" height="15" fill="#66f766" rx="2" ry="2"/>
<text x="89.6" y="142.0">one/nio/http/Ht..</text>
</g>
<g>
<title>one/nio/http/Response.toBytes (3,734 samples, 7.08%)</title><rect x="86.6" y="115.0" width="83.5" height="15" fill="#67f867" rx="2" ry="2"/>
<text x="89.6" y="126.0">one/nio/h..</text>
</g>
<g>
<title>one/nio/util/ByteArrayBuilder.&lt;init&gt; (3,734 samples, 7.08%)</title><rect x="86.6" y="99.0" width="83.5" height="15" fill="#58e958" rx="2" ry="2"/>
<text x="89.6" y="110.0">one/nio/u..</text>
</g>
<g>
<title>byte[] (3,623 samples, 6.87%)</title><rect x="86.6" y="83.0" width="81.0" height="15" fill="#52c0c0" rx="2" ry="2"/>
<text x="89.6" y="94.0">byte[]</text>
</g>
<g>
<title>byte[] (111 samples, 0.21%)</title><rect x="167.6" y="83.0" width="2.5" height="15" fill="#fb9700" rx="2" ry="2"/>
<text x="170.6" y="94.0"></text>
</g>
<g>
<title>one/nio/net/Session.write (1,659 samples, 3.14%)</title><rect x="170.1" y="115.0" width="37.1" height="15" fill="#55e655" rx="2" ry="2"/>
<text x="173.1" y="126.0">one..</text>
</g>
<g>
<title>one.nio.net.Session$ArrayQueueItem (1,659 samples, 3.14%)</title><rect x="170.1" y="99.0" width="37.1" height="15" fill="#55c3c3" rx="2" ry="2"/>
<text x="173.1" y="110.0">one..</text>
</g>
<g>
<title>one/nio/http/Request.getRequiredParameter (2,333 samples, 4.42%)</title><rect x="207.2" y="147.0" width="52.2" height="15" fill="#5aeb5a" rx="2" ry="2"/>
<text x="210.2" y="158.0">one/n..</text>
</g>
<g>
<title>one/nio/http/Request.getParameter (2,333 samples, 4.42%)</title><rect x="207.2" y="131.0" width="52.2" height="15" fill="#5dee5d" rx="2" ry="2"/>
<text x="210.2" y="142.0">one/n..</text>
</g>
<g>
<title>java/lang/String.substring (2,333 samples, 4.42%)</title><rect x="207.2" y="115.0" width="52.2" height="15" fill="#5bec5b" rx="2" ry="2"/>
<text x="210.2" y="126.0">java/..</text>
</g>
<g>
<title>java/lang/String.substring (2,333 samples, 4.42%)</title><rect x="207.2" y="99.0" width="52.2" height="15" fill="#63f463" rx="2" ry="2"/>
<text x="210.2" y="110.0">java/..</text>
</g>
<g>
<title>java/lang/StringLatin1.newString (2,333 samples, 4.42%)</title><rect x="207.2" y="83.0" width="52.2" height="15" fill="#53e453" rx="2" ry="2"/>
<text x="210.2" y="94.0">java/..</text>
</g>
<g>
<title>java.lang.String (915 samples, 1.73%)</title><rect x="207.2" y="67.0" width="20.5" height="15" fill="#59c7c7" rx="2" ry="2"/>
<text x="210.2" y="78.0"></text>
</g>
<g>
<title>java/util/Arrays.copyOfRange (1,418 samples, 2.69%)</title><rect x="227.7" y="67.0" width="31.7" height="15" fill="#6afb6a" rx="2" ry="2"/>
<text x="230.7" y="78.0">ja..</text>
</g>
<g>
<title>byte[] (1,418 samples, 2.69%)</title><rect x="227.7" y="51.0" width="31.7" height="15" fill="#62d0d0" rx="2" ry="2"/>
<text x="230.7" y="62.0">by..</text>
</g>
<g>
<title>ru/mail/polis/service/medalexey/ServiceImpl.entity (15,041 samples, 28.51%)</title><rect x="259.4" y="147.0" width="336.4" height="15" fill="#53e453" rx="2" ry="2"/>
<text x="262.4" y="158.0">ru/mail/polis/service/medalexey/ServiceImpl.en..</text>
</g>
<g>
<title>ru/mail/polis/service/medalexey/ServiceImpl.put (15,041 samples, 28.51%)</title><rect x="259.4" y="131.0" width="336.4" height="15" fill="#68f968" rx="2" ry="2"/>
<text x="262.4" y="142.0">ru/mail/polis/service/medalexey/ServiceImpl.put</text>
</g>
<g>
<title>java/lang/String.getBytes (1,343 samples, 2.55%)</title><rect x="259.4" y="115.0" width="30.0" height="15" fill="#66f766" rx="2" ry="2"/>
<text x="262.4" y="126.0">ja..</text>
</g>
<g>
<title>java/lang/StringCoding.encode (1,343 samples, 2.55%)</title><rect x="259.4" y="99.0" width="30.0" height="15" fill="#5bec5b" rx="2" ry="2"/>
<text x="262.4" y="110.0">ja..</text>
</g>
<g>
<title>java/lang/StringCoding.encodeUTF8 (1,343 samples, 2.55%)</title><rect x="259.4" y="83.0" width="30.0" height="15" fill="#5bec5b" rx="2" ry="2"/>
<text x="262.4" y="94.0">ja..</text>
</g>
<g>
<title>java/util/Arrays.copyOf (1,343 samples, 2.55%)</title><rect x="259.4" y="67.0" width="30.0" height="15" fill="#5bec5b" rx="2" ry="2"/>
<text x="262.4" y="78.0">ja..</text>
</g>
<g>
<title>byte[] (1,343 samples, 2.55%)</title><rect x="259.4" y="51.0" width="30.0" height="15" fill="#58c6c6" rx="2" ry="2"/>
<text x="262.4" y="62.0">by..</text>
</g>
<g>
<title>one.nio.http.Response (1,014 samples, 1.92%)</title><rect x="289.4" y="115.0" width="22.7" height="15" fill="#61cfcf" rx="2" ry="2"/>
<text x="292.4" y="126.0">o..</text>
</g>
<g>
<title>one/nio/http/Response.&lt;init&gt; (3,963 samples, 7.51%)</title><rect x="312.1" y="115.0" width="88.7" height="15" fill="#52e352" rx="2" ry="2"/>
<text x="315.1" y="126.0">one/nio/ht..</text>
</g>
<g>
<title>byte[] (1,661 samples, 3.15%)</title><rect x="312.1" y="99.0" width="37.2" height="15" fill="#6bd9d9" rx="2" ry="2"/>
<text x="315.1" y="110.0">byt..</text>
</g>
<g>
<title>java.lang.String[] (1,322 samples, 2.51%)</title><rect x="349.3" y="99.0" width="29.5" height="15" fill="#5ccaca" rx="2" ry="2"/>
<text x="352.3" y="110.0">ja..</text>
</g>
<g>
<title>java.lang.String (980 samples, 1.86%)</title><rect x="378.8" y="99.0" width="22.0" height="15" fill="#6ad8d8" rx="2" ry="2"/>
<text x="381.8" y="110.0">j..</text>
</g>
<g>
<title>ru/mail/polis/lsm/Record.of (5,529 samples, 10.48%)</title><rect x="400.8" y="115.0" width="123.6" height="15" fill="#64f564" rx="2" ry="2"/>
<text x="403.8" y="126.0">ru/mail/polis/l..</text>
</g>
<g>
<title>ru.mail.polis.lsm.Record (941 samples, 1.78%)</title><rect x="400.8" y="99.0" width="21.0" height="15" fill="#5dcbcb" rx="2" ry="2"/>
<text x="403.8" y="110.0">r..</text>
</g>
<g>
<title>ru/mail/polis/lsm/Record.&lt;init&gt; (4,588 samples, 8.70%)</title><rect x="421.8" y="99.0" width="102.6" height="15" fill="#5eef5e" rx="2" ry="2"/>
<text x="424.8" y="110.0">ru/mail/poli..</text>
</g>
<g>
<title>java/nio/HeapByteBufferR.asReadOnlyBuffer (4,588 samples, 8.70%)</title><rect x="421.8" y="83.0" width="102.6" height="15" fill="#58e958" rx="2" ry="2"/>
<text x="424.8" y="94.0">java/nio/Hea..</text>
</g>
<g>
<title>java/nio/HeapByteBufferR.duplicate (4,588 samples, 8.70%)</title><rect x="421.8" y="67.0" width="102.6" height="15" fill="#56e756" rx="2" ry="2"/>
<text x="424.8" y="78.0">java/nio/Hea..</text>
</g>
<g>
<title>java.nio.HeapByteBufferR (4,584 samples, 8.69%)</title><rect x="421.8" y="51.0" width="102.5" height="15" fill="#57c5c5" rx="2" ry="2"/>
<text x="424.8" y="62.0">java.nio.Hea..</text>
</g>
<g>
<title>ru/mail/polis/lsm/artemdrozdov/LsmDAO.upsert (3,192 samples, 6.05%)</title><rect x="524.4" y="115.0" width="71.4" height="15" fill="#61f261" rx="2" ry="2"/>
<text x="527.4" y="126.0">ru/mail/..</text>
</g>
<g>
<title>java/util/concurrent/ConcurrentSkipListMap.&lt;init&gt; (351 samples, 0.67%)</title><rect x="524.4" y="99.0" width="7.9" height="15" fill="#59ea59" rx="2" ry="2"/>
<text x="527.4" y="110.0"></text>
</g>
<g>
<title>java/util/concurrent/ConcurrentSkipListMap.buildFromSorted (351 samples, 0.67%)</title><rect x="524.4" y="83.0" width="7.9" height="15" fill="#53e453" rx="2" ry="2"/>
<text x="527.4" y="94.0"></text>
</g>
<g>
<title>java.util.concurrent.ConcurrentSkipListMap$Index (102 samples, 0.19%)</title><rect x="524.4" y="67.0" width="2.3" height="15" fill="#66d4d4" rx="2" ry="2"/>
<text x="527.4" y="78.0"></text>
</g>
<g>
<title>java.util.concurrent.ConcurrentSkipListMap$Node (249 samples, 0.47%)</title><rect x="526.7" y="67.0" width="5.6" height="15" fill="#5ecccc" rx="2" ry="2"/>
<text x="529.7" y="78.0"></text>
</g>
<g>
<title>java/util/concurrent/ConcurrentSkipListMap.put (359 samples, 0.68%)</title><rect x="532.3" y="99.0" width="8.0" height="15" fill="#5eef5e" rx="2" ry="2"/>
<text x="535.3" y="110.0"></text>
</g>
<g>
<title>java/util/concurrent/ConcurrentSkipListMap.doPut (359 samples, 0.68%)</title><rect x="532.3" y="83.0" width="8.0" height="15" fill="#55e655" rx="2" ry="2"/>
<text x="535.3" y="94.0"></text>
</g>
<g>
<title>java.util.concurrent.ConcurrentSkipListMap$Index (106 samples, 0.20%)</title><rect x="532.3" y="67.0" width="2.3" height="15" fill="#69d7d7" rx="2" ry="2"/>
<text x="535.3" y="78.0"></text>
</g>
<g>
<title>java.util.concurrent.ConcurrentSkipListMap$Node (253 samples, 0.48%)</title><rect x="534.6" y="67.0" width="5.7" height="15" fill="#54c2c2" rx="2" ry="2"/>
<text x="537.6" y="78.0"></text>
</g>
<g>
<title>ru/mail/polis/lsm/Record.getKey (2,482 samples, 4.70%)</title><rect x="540.3" y="99.0" width="55.5" height="15" fill="#58e958" rx="2" ry="2"/>
<text x="543.3" y="110.0">ru/ma..</text>
</g>
<g>
<title>java/nio/HeapByteBufferR.asReadOnlyBuffer (2,482 samples, 4.70%)</title><rect x="540.3" y="83.0" width="55.5" height="15" fill="#55e655" rx="2" ry="2"/>
<text x="543.3" y="94.0">java/..</text>
</g>
<g>
<title>java/nio/HeapByteBufferR.duplicate (2,482 samples, 4.70%)</title><rect x="540.3" y="67.0" width="55.5" height="15" fill="#50e150" rx="2" ry="2"/>
<text x="543.3" y="78.0">java/..</text>
</g>
<g>
<title>java.nio.HeapByteBufferR (2,471 samples, 4.68%)</title><rect x="540.3" y="51.0" width="55.3" height="15" fill="#6bd9d9" rx="2" ry="2"/>
<text x="543.3" y="62.0">java...</text>
</g>
<g>
<title>one/nio/http/Request.getPath (2,376 samples, 4.50%)</title><rect x="595.8" y="163.0" width="53.2" height="15" fill="#58e958" rx="2" ry="2"/>
<text x="598.8" y="174.0">one/n..</text>
</g>
<g>
<title>java/lang/String.substring (2,376 samples, 4.50%)</title><rect x="595.8" y="147.0" width="53.2" height="15" fill="#68f968" rx="2" ry="2"/>
<text x="598.8" y="158.0">java/..</text>
</g>
<g>
<title>java/lang/StringLatin1.newString (2,376 samples, 4.50%)</title><rect x="595.8" y="131.0" width="53.2" height="15" fill="#63f463" rx="2" ry="2"/>
<text x="598.8" y="142.0">java/..</text>
</g>
<g>
<title>java.lang.String (1,183 samples, 2.24%)</title><rect x="595.8" y="115.0" width="26.5" height="15" fill="#64d2d2" rx="2" ry="2"/>
<text x="598.8" y="126.0">j..</text>
</g>
<g>
<title>java/util/Arrays.copyOfRange (1,193 samples, 2.26%)</title><rect x="622.3" y="115.0" width="26.7" height="15" fill="#55e655" rx="2" ry="2"/>
<text x="625.3" y="126.0">j..</text>
</g>
<g>
<title>byte[] (1,193 samples, 2.26%)</title><rect x="622.3" y="99.0" width="26.7" height="15" fill="#51bfbf" rx="2" ry="2"/>
<text x="625.3" y="110.0">b..</text>
</g>
<g>
<title>one/nio/http/HttpSession.parseRequest (10,663 samples, 20.21%)</title><rect x="649.0" y="195.0" width="238.5" height="15" fill="#6cfd6c" rx="2" ry="2"/>
<text x="652.0" y="206.0">one/nio/http/HttpSession.parseRe..</text>
</g>
<g>
<title>one.nio.http.Request (1,678 samples, 3.18%)</title><rect x="649.0" y="179.0" width="37.5" height="15" fill="#67d5d5" rx="2" ry="2"/>
<text x="652.0" y="190.0">one..</text>
</g>
<g>
<title>one/nio/http/Request.&lt;init&gt; (3,455 samples, 6.55%)</title><rect x="686.5" y="179.0" width="77.3" height="15" fill="#53e453" rx="2" ry="2"/>
<text x="689.5" y="190.0">one/nio/h..</text>
</g>
<g>
<title>java.lang.String[] (3,388 samples, 6.42%)</title><rect x="686.5" y="163.0" width="75.8" height="15" fill="#69d7d7" rx="2" ry="2"/>
<text x="689.5" y="174.0">java.lan..</text>
</g>
<g>
<title>java.lang.String[] (67 samples, 0.13%)</title><rect x="762.3" y="163.0" width="1.5" height="15" fill="#e78300" rx="2" ry="2"/>
<text x="765.3" y="174.0"></text>
</g>
<g>
<title>one/nio/util/Utf8.read (5,530 samples, 10.48%)</title><rect x="763.8" y="179.0" width="123.7" height="15" fill="#6dfe6d" rx="2" ry="2"/>
<text x="766.8" y="190.0">one/nio/util/Ut..</text>
</g>
<g>
<title>one/nio/util/Utf8.read (5,530 samples, 10.48%)</title><rect x="763.8" y="163.0" width="123.7" height="15" fill="#60f160" rx="2" ry="2"/>
<text x="766.8" y="174.0">one/nio/util/Ut..</text>
</g>
<g>
<title>char[] (2,834 samples, 5.37%)</title><rect x="763.8" y="147.0" width="63.4" height="15" fill="#64d2d2" rx="2" ry="2"/>
<text x="766.8" y="158.0">char[]</text>
</g>
<g>
<title>java.lang.String (955 samples, 1.81%)</title><rect x="827.3" y="147.0" width="21.3" height="15" fill="#5dcbcb" rx="2" ry="2"/>
<text x="830.3" y="158.0">j..</text>
</g>
<g>
<title>java/lang/String.&lt;init&gt; (1,736 samples, 3.29%)</title><rect x="848.6" y="147.0" width="38.9" height="15" fill="#68f968" rx="2" ry="2"/>
<text x="851.6" y="158.0">jav..</text>
</g>
<g>
<title>java/lang/String.&lt;init&gt; (1,736 samples, 3.29%)</title><rect x="848.6" y="131.0" width="38.9" height="15" fill="#6afb6a" rx="2" ry="2"/>
<text x="851.6" y="142.0">jav..</text>
</g>
<g>
<title>java/lang/StringUTF16.compress (1,736 samples, 3.29%)</title><rect x="848.6" y="115.0" width="38.9" height="15" fill="#65f665" rx="2" ry="2"/>
<text x="851.6" y="126.0">jav..</text>
</g>
<g>
<title>byte[] (1,736 samples, 3.29%)</title><rect x="848.6" y="99.0" width="38.9" height="15" fill="#5ccaca" rx="2" ry="2"/>
<text x="851.6" y="110.0">byt..</text>
</g>
<g>
<title>one/nio/http/HttpSession.startParsingRequestBody (1,331 samples, 2.52%)</title><rect x="887.5" y="195.0" width="29.7" height="15" fill="#55e655" rx="2" ry="2"/>
<text x="890.5" y="206.0">on..</text>
</g>
<g>
<title>byte[] (1,331 samples, 2.52%)</title><rect x="887.5" y="179.0" width="29.7" height="15" fill="#69d7d7" rx="2" ry="2"/>
<text x="890.5" y="190.0">by..</text>
</g>
<g>
<title>one/nio/http/Request.getHeader (2,107 samples, 3.99%)</title><rect x="917.2" y="195.0" width="47.1" height="15" fill="#54e554" rx="2" ry="2"/>
<text x="920.2" y="206.0">one/..</text>
</g>
<g>
<title>one/nio/http/Request.trim (2,107 samples, 3.99%)</title><rect x="917.2" y="179.0" width="47.1" height="15" fill="#64f564" rx="2" ry="2"/>
<text x="920.2" y="190.0">one/..</text>
</g>
<g>
<title>java/lang/String.substring (2,107 samples, 3.99%)</title><rect x="917.2" y="163.0" width="47.1" height="15" fill="#59ea59" rx="2" ry="2"/>
<text x="920.2" y="174.0">java..</text>
</g>
<g>
<title>java/lang/StringLatin1.newString (2,107 samples, 3.99%)</title><rect x="917.2" y="147.0" width="47.1" height="15" fill="#5aeb5a" rx="2" ry="2"/>
<text x="920.2" y="158.0">java..</text>
</g>
<g>
<title>java.lang.String (1,058 samples, 2.01%)</title><rect x="917.2" y="131.0" width="23.7" height="15" fill="#5fcdcd" rx="2" ry="2"/>
<text x="920.2" y="142.0">j..</text>
</g>
<g>
<title>java/util/Arrays.copyOfRange (1,049 samples, 1.99%)</title><rect x="940.9" y="131.0" width="23.4" height="15" fill="#5dee5d" rx="2" ry="2"/>
<text x="943.9" y="142.0">j..</text>
</g>
<g>
<title>byte[] (1,049 samples, 1.99%)</title><rect x="940.9" y="115.0" width="23.4" height="15" fill="#63d1d1" rx="2" ry="2"/>
<text x="943.9" y="126.0">b..</text>
</g>
<g>
<title>one/nio/util/Utf8.read (10,089 samples, 19.12%)</title><rect x="964.3" y="195.0" width="225.7" height="15" fill="#65f665" rx="2" ry="2"/>
<text x="967.3" y="206.0">one/nio/util/Utf8.read</text>
</g>
<g>
<title>one/nio/util/Utf8.read (10,089 samples, 19.12%)</title><rect x="964.3" y="179.0" width="225.7" height="15" fill="#5dee5d" rx="2" ry="2"/>
<text x="967.3" y="190.0">one/nio/util/Utf8.read</text>
</g>
<g>
<title>char[] (4,765 samples, 9.03%)</title><rect x="964.3" y="163.0" width="106.6" height="15" fill="#60cece" rx="2" ry="2"/>
<text x="967.3" y="174.0">char[]</text>
</g>
<g>
<title>java.lang.String (1,922 samples, 3.64%)</title><rect x="1071.0" y="163.0" width="43.0" height="15" fill="#50bebe" rx="2" ry="2"/>
<text x="1074.0" y="174.0">java..</text>
</g>
<g>
<title>java/lang/String.&lt;init&gt; (3,400 samples, 6.44%)</title><rect x="1114.0" y="163.0" width="76.0" height="15" fill="#58e958" rx="2" ry="2"/>
<text x="1117.0" y="174.0">java/lan..</text>
</g>
<g>
<title>java/lang/String.&lt;init&gt; (3,400 samples, 6.44%)</title><rect x="1114.0" y="147.0" width="76.0" height="15" fill="#55e655" rx="2" ry="2"/>
<text x="1117.0" y="158.0">java/lan..</text>
</g>
<g>
<title>java/lang/StringUTF16.compress (3,400 samples, 6.44%)</title><rect x="1114.0" y="131.0" width="76.0" height="15" fill="#64f564" rx="2" ry="2"/>
<text x="1117.0" y="142.0">java/lan..</text>
</g>
<g>
<title>byte[] (3,400 samples, 6.44%)</title><rect x="1114.0" y="115.0" width="76.0" height="15" fill="#5dcbcb" rx="2" ry="2"/>
<text x="1117.0" y="126.0">byte[]</text>
</g>
</g>
</svg>
